<?xml version="1.0" encoding="UTF-8" standalone="no"?>
<svg
   xmlns:dc="http://purl.org/dc/elements/1.1/"
   xmlns:cc="http://creativecommons.org/ns#"
   xmlns:rdf="http://www.w3.org/1999/02/22-rdf-syntax-ns#"
   xmlns:svg="http://www.w3.org/2000/svg"
   xmlns="http://www.w3.org/2000/svg"
   xmlns:sodipodi="http://sodipodi.sourceforge.net/DTD/sodipodi-0.dtd"
   xmlns:inkscape="http://www.inkscape.org/namespaces/inkscape"
   height="512"
   width="512"
   version="1.1"
   viewBox="0 0 512 512"
   id="svg35"
   sodipodi:docname="apc.svg"
   inkscape:version="0.92.1 r15371">
  <metadata
     id="metadata41">
    <rdf:RDF>
      <cc:Work
         rdf:about="">
        <dc:format>image/svg+xml</dc:format>
        <dc:type
           rdf:resource="http://purl.org/dc/dcmitype/StillImage" />
        <dc:title></dc:title>
      </cc:Work>
    </rdf:RDF>
  </metadata>
  <defs
     id="defs39" />
  <sodipodi:namedview
     pagecolor="#ffffff"
     bordercolor="#666666"
     borderopacity="1"
     objecttolerance="10"
     gridtolerance="10"
     guidetolerance="10"
     inkscape:pageopacity="0"
     inkscape:pageshadow="2"
     inkscape:window-width="1920"
     inkscape:window-height="1137"
     id="namedview37"
     showgrid="true"
     inkscape:zoom="1.84375"
     inkscape:cx="389.48175"
     inkscape:cy="280.0183"
     inkscape:window-x="1912"
     inkscape:window-y="-8"
     inkscape:window-maximized="1"
     inkscape:current-layer="svg35">
    <inkscape:grid
       type="xygrid"
       id="grid8450"
       empspacing="4" />
  </sodipodi:namedview>
  <symbol id="symbol" viewBox="0 0 512 512">
    <path
       style="fill-rule:evenodd"
       d="M 172 0 L 172 8 L 136 28 L 136 512 L 376 512 L 376 24 L 336 8 L 336 0 L 172 0 z M 200 36 L 312 36 L 312 40 L 200 40 L 200 36 z M 196 46 L 316 46 L 316 50 L 196 50 L 196 46 z M 192 56 L 320 56 L 320 60 L 192 60 L 192 56 z M 251.86523 64 L 260 64 L 260 66 L 324 66 L 324 70 L 260 70 L 260 76 L 328 76 L 328 80 L 260 80 L 260 86 L 332 86 L 332 90 L 260 90 L 260 216.14258 A 88 88 0 0 1 344 304 A 88 88 0 0 1 256 392 A 88 88 0 0 1 168 304 A 88 88 0 0 1 251.86523 216.20703 L 251.86523 90 L 180 90 L 180 86 L 251.86523 86 L 251.86523 80 L 184 80 L 184 76 L 251.86523 76 L 251.86523 70 L 188 70 L 188 66 L 251.86523 66 L 251.86523 64 z M 336 148 L 360 148 L 360 212 L 336 212 L 336 148 z M 256 224 A 80 80 0 0 0 176 304 A 80 80 0 0 0 256 384 A 80 80 0 0 0 336 304 A 80 80 0 0 0 256 224 z M 300.38867 292.38867 A 23.612 23.612 0 0 1 324 316 A 23.612 23.612 0 0 1 300.38867 339.61133 A 23.612 23.612 0 0 1 276.77539 316 A 23.612 23.612 0 0 1 300.38867 292.38867 z M 192 424 L 224 424 L 240 440 L 240 480 L 224 496 L 192 496 L 192 424 z M 288 424 L 320 424 L 320 496 L 288 496 L 272 480 L 272 440 L 288 424 z "
       id="path2" />
   </symbol>
</svg>
