<?xml version="1.0" encoding="UTF-8" standalone="no"?>

<svg xmlns="http://www.w3.org/2000/svg" version="1.1">
	<defs>
		<symbol id="symbol" viewBox="0 0 256 256">
			<path d="M 128,0 96.470703,45.861328 A 88,88 0 0 1 128,40 a 88,88 0 0 1 31.60742,5.974609 z" />
			<path d="m 128,56 a 72,72 0 0 0 -72,72 72,72 0 0 0 72,72 72,72 0 0 0 72,-72 72,72 0 0 0 -72,-72 z m -32,56 a 16,16 0 0 1 13.83398,8 h 36.32618 A 16,16 0 0 1 160,112 a 16,16 0 0 1 13.83984,8 H 164 a 8,8 0 0 0 -8,8 8,8 0 0 0 8,8 h 9.83398 A 16,16 0 0 1 160,144 16,16 0 0 1 146.16602,136 H 109.83984 A 16,16 0 0 1 96,144 16,16 0 0 1 82.160156,136 H 92 a 8,8 0 0 0 8,-8 8,8 0 0 0 -8,-8 H 82.166016 A 16,16 0 0 1 96,112 Z" />
		</symbol>
	</defs>
</svg>
