<?xml version="1.0" encoding="UTF-8" standalone="no"?>

<svg xmlns="http://www.w3.org/2000/svg" version="1.1">
	<defs>
		<symbol id="symbol" viewBox="0 0 256 256">
			<path d="M 128,0 96.470703,45.861328 A 88,88 0 0 1 128,40 a 88,88 0 0 1 31.60742,5.974609 z" />
			<path d="m 128,56 a 72,72 0 0 0 -72,72 72,72 0 0 0 72,72 72,72 0 0 0 72,-72 72,72 0 0 0 -72,-72 z m -8,20 h 24 v 4 l -4,8 v 8 h -12 a 32,40 0 0 1 32,40 32,40 0 0 1 -32,40 32,40 0 0 1 -32,-40 32,40 0 0 1 32,-40 h -16 l -24,32 24,-48 z" />
		</symbol>
	</defs>
</svg>
