<?xml version="1.0" encoding="UTF-8" standalone="no"?>
<svg
   xmlns:dc="http://purl.org/dc/elements/1.1/"
   xmlns:cc="http://creativecommons.org/ns#"
   xmlns:rdf="http://www.w3.org/1999/02/22-rdf-syntax-ns#"
   xmlns:svg="http://www.w3.org/2000/svg"
   xmlns="http://www.w3.org/2000/svg"
   xmlns:sodipodi="http://sodipodi.sourceforge.net/DTD/sodipodi-0.dtd"
   xmlns:inkscape="http://www.inkscape.org/namespaces/inkscape"
   height="512"
   width="512"
   version="1.1"
   viewBox="0 0 512 512"
   id="svg8435"
   sodipodi:docname="helicopter.svg"
   inkscape:version="0.92.1 r15371">
  <sodipodi:namedview
     pagecolor="#ffffff"
     bordercolor="#666666"
     borderopacity="1"
     objecttolerance="10"
     gridtolerance="10"
     guidetolerance="10"
     inkscape:pageopacity="0"
     inkscape:pageshadow="2"
     inkscape:window-width="1920"
     inkscape:window-height="1137"
     id="namedview8437"
     showgrid="true"
     inkscape:zoom="1.3037281"
     inkscape:cx="304.01393"
     inkscape:cy="300.3671"
     inkscape:window-x="1912"
     inkscape:window-y="-8"
     inkscape:window-maximized="1"
     inkscape:current-layer="svg8435">
    <inkscape:grid
       type="xygrid"
       id="grid8446"
       empspacing="4" />
  </sodipodi:namedview>
	<symbol id="symbol" viewBox="0 0 512 512">
		<path
	     style="fill-rule:evenodd"
	     inkscape:connector-curvature="0"
	     id="path8428"
	     d="m 255.73,0.57143 c -23.93,15.25 -50.95,19.255 -57.86,96.429 v 51.429 l -77.307,42.977 v 42.023 h 80.274 v 52.857 c 20.416,11.2 30.995,25.951 35.607,42.857 v 121.43 l -44.511,29.033 -0.35714,32.396 h 128.45 v -33.143 l -44.599,-28.581 v -118.99 c 6.88,-14.3 8.45,-28.59 35.94,-42.87 v -56.429 h 78.633 v -42.857 l -75.38,-41.905 v -51.666 c -5.2172,-39.511 -9.37,-79.6 -58.889,-95 z" />
	  <path
	     transform="rotate(-45)"
 	     style="fill-rule:evenodd"
	     d="m -216.40205,314.44077 h 512 v 16 h -512 z"
	     id="rect8448" />
	  <path
	     transform="rotate(45)"
 	     style="fill-rule:evenodd"
	     d="M 66.440758,-47.59795 H 578.44076 v 16 H 66.440758 Z"
	     id="rect8448-1" />
	</symbol>
</svg>
