<?xml version="1.0" encoding="UTF-8" standalone="no"?>

<svg xmlns="http://www.w3.org/2000/svg" version="1.1">
  <defs>
    <symbol id="symbol" viewBox="0 0 256 256">
      <path d="M 128,0 96.470703,45.861328 A 88,88 0 0 1 128,40 a 88,88 0 0 1 31.60742,5.974609 z" />
      <path d="m 128,56 a 72,72 0 0 0 -72,72 72,72 0 0 0 72,72 72,72 0 0 0 72,-72 72,72 0 0 0 -72,-72 z m -10,32 h 20 v 22.67969 l 19.64062,-11.339846 10,17.320316 L 148,128 l 19.64062,11.33984 -10,17.32032 L 138,145.32031 V 168 h -20 v -22.67969 l -19.640625,11.33985 -10,-17.32032 L 108,128 88.359375,116.66016 l 10,-17.320316 L 118,110.67969 Z" />
    </symbol>
  </defs>
</svg>
