<?xml version="1.0" encoding="UTF-8" standalone="no"?>
<!-- Created with Inkscape (http://www.inkscape.org/) -->

<svg
   xmlns:dc="http://purl.org/dc/elements/1.1/"
   xmlns:cc="http://creativecommons.org/ns#"
   xmlns:rdf="http://www.w3.org/1999/02/22-rdf-syntax-ns#"
   xmlns:svg="http://www.w3.org/2000/svg"
   xmlns="http://www.w3.org/2000/svg"
   xmlns:sodipodi="http://sodipodi.sourceforge.net/DTD/sodipodi-0.dtd"
   xmlns:inkscape="http://www.inkscape.org/namespaces/inkscape"
   version="1.1"
   id="svg4737"
   inkscape:version="0.92.1 r15371"
   sodipodi:docname="soldier-medic.svg">
  <symbol id="symbol" viewBox="0 0 256 256">
      <path
         d="M 128 0 L 96.392578 45.974609 A 87.999996 87.999996 0 0 1 128 40 A 87.999996 87.999996 0 0 1 159.5293 45.861328 L 128 0 z M 128 56 A 71.999995 71.999995 0 0 0 56 128 A 71.999994 71.999994 0 0 0 56.306641 134.14453 A 71.999995 71.999995 0 0 0 56.736328 137.68359 A 71.999994 71.999994 0 0 0 57.28125 141.2793 A 71.999995 71.999995 0 0 0 58.060547 144.75391 A 71.999994 71.999994 0 0 0 58.955078 148.25781 A 71.999995 71.999995 0 0 0 60.089844 151.67188 A 71.999994 71.999994 0 0 0 61.322266 155.04883 A 71.999995 71.999995 0 0 0 62.804688 158.35742 A 71.999994 71.999994 0 0 0 64.349609 161.55859 A 71.999995 71.999995 0 0 0 66.150391 164.69727 A 71.999994 71.999994 0 0 0 68.03125 167.76562 A 71.999995 71.999995 0 0 0 70.097656 170.65625 A 71.999994 71.999994 0 0 0 72.304688 173.55859 A 71.999995 71.999995 0 0 0 74.650391 176.22852 A 71.999994 71.999994 0 0 0 77.121094 178.87891 A 71.999995 71.999995 0 0 0 79.771484 181.34961 A 71.999994 71.999994 0 0 0 82.441406 183.69531 A 71.999995 71.999995 0 0 0 85.34375 185.90234 A 71.999994 71.999994 0 0 0 88.234375 187.96875 A 71.999995 71.999995 0 0 0 91.302734 189.84961 A 71.999994 71.999994 0 0 0 94.441406 191.65039 A 71.999995 71.999995 0 0 0 97.642578 193.19531 A 71.999994 71.999994 0 0 0 100.95117 194.67773 A 71.999995 71.999995 0 0 0 104.32812 195.91016 A 71.999994 71.999994 0 0 0 107.74219 197.04492 A 71.999995 71.999995 0 0 0 111.24609 197.93945 A 71.999994 71.999994 0 0 0 114.7207 198.71875 A 71.999995 71.999995 0 0 0 118.31641 199.26367 A 71.999994 71.999994 0 0 0 121.85547 199.69336 A 71.999995 71.999995 0 0 0 128 200 A 71.999994 71.999994 0 0 0 134.14453 199.69336 A 71.999995 71.999995 0 0 0 137.68359 199.26367 A 71.999994 71.999994 0 0 0 141.2793 198.71875 A 71.999995 71.999995 0 0 0 144.75391 197.93945 A 71.999994 71.999994 0 0 0 148.25781 197.04492 A 71.999995 71.999995 0 0 0 151.67188 195.91016 A 71.999994 71.999994 0 0 0 155.04883 194.67773 A 71.999995 71.999995 0 0 0 158.35742 193.19531 A 71.999994 71.999994 0 0 0 161.55859 191.65039 A 71.999995 71.999995 0 0 0 164.69727 189.84961 A 71.999994 71.999994 0 0 0 167.76562 187.96875 A 71.999995 71.999995 0 0 0 170.65625 185.90234 A 71.999994 71.999994 0 0 0 173.55859 183.69531 A 71.999995 71.999995 0 0 0 176.22852 181.34961 A 71.999994 71.999994 0 0 0 178.87891 178.87891 A 71.999995 71.999995 0 0 0 181.34961 176.22852 A 71.999994 71.999994 0 0 0 183.69531 173.55859 A 71.999995 71.999995 0 0 0 185.90234 170.65625 A 71.999994 71.999994 0 0 0 187.96875 167.76562 A 71.999995 71.999995 0 0 0 189.84961 164.69727 A 71.999994 71.999994 0 0 0 191.65039 161.55859 A 71.999995 71.999995 0 0 0 193.19531 158.35742 A 71.999994 71.999994 0 0 0 194.67773 155.04883 A 71.999995 71.999995 0 0 0 195.91016 151.67188 A 71.999994 71.999994 0 0 0 197.04492 148.25781 A 71.999995 71.999995 0 0 0 197.93945 144.75391 A 71.999994 71.999994 0 0 0 198.71875 141.2793 A 71.999995 71.999995 0 0 0 199.26367 137.68359 A 71.999994 71.999994 0 0 0 199.69336 134.14453 A 71.999995 71.999995 0 0 0 200 128 A 71.999995 71.999995 0 0 0 128 56 z M 120 72 L 136 72 L 136 108.6875 L 161.94141 82.746094 L 173.25391 94.058594 L 147.3125 120 L 184 120 L 184 136 L 147.3125 136 L 173.25391 161.94141 L 161.94141 173.25391 L 136 147.3125 L 136 184 L 120 184 L 120 147.3125 L 94.058594 173.25391 L 82.746094 161.94141 L 108.6875 136 L 72 136 L 72 120 L 108.6875 120 L 82.746094 94.058594 L 94.058594 82.746094 L 120 108.6875 L 120 72 z "
         id="path4762" />
	</symbol>
</svg>
