<?xml version="1.0" encoding="UTF-8" standalone="no"?>

<svg xmlns="http://www.w3.org/2000/svg" version="1.1">
  <defs>
    <symbol id="symbol" viewBox="0 0 256 256">
      <path d="M 128,0 96.470703,45.861328 A 88,88 0 0 1 128,40 a 88,88 0 0 1 31.60742,5.974609 z" />
      <path d="m 128,56 a 72,72 0 0 0 -72,72 72,72 0 0 0 72,72 72,72 0 0 0 72,-72 72,72 0 0 0 -72,-72 z M 88.402344,71.431641 128,111.0293 167.59766,71.431641 184.56836,88.402344 144.9707,128 l 39.59766,39.59766 -16.9707,16.9707 L 128,144.9707 88.402344,184.56836 71.431641,167.59766 111.0293,128 71.431641,88.402344 Z" />
    </symbol>
  </defs>
</svg>
