<?xml version="1.0" encoding="UTF-8" standalone="no"?>

<svg xmlns="http://www.w3.org/2000/svg" version="1.1">
  <defs>
    <symbol id="symbol" viewBox="0 0 256 256">
      <path d="M 128,0 96.470703,45.861328 A 88,88 0 0 1 128,40 a 88,88 0 0 1 31.60742,5.974609 z" />
      <path d="m 128,56 a 72,72 0 0 0 -72,72 72,72 0 0 0 72,72 72,72 0 0 0 72,-72 72,72 0 0 0 -72,-72 z m -2,8 h 4 v 24 h -4 z m -2,8.144531 v 4.025391 A 52,52 0 0 0 76.199219,124 h -4 A 56,56 0 0 1 124,72.144531 Z m 8,0.05469 A 56,56 0 0 1 183.85547,124 h -4.02539 A 52,52 0 0 0 132,76.199219 Z M 64,126 h 24 v 4 H 64 Z m 62,0 h 4 v 4 h -4 z m 42,0 h 24 v 4 h -24 z m -95.855469,6 h 4.025391 A 52,52 0 0 0 124,179.80078 v 4 A 56,56 0 0 1 72.144531,132 Z m 107.656249,0 h 4 A 56,56 0 0 1 132,183.85547 v -4.02539 A 52,52 0 0 0 179.80078,132 Z M 126,168 h 4 v 24 h -4 z" />
    </symbol>
  </defs>
</svg>
