<?xml version="1.0" encoding="UTF-8" standalone="no"?>
<svg xmlns="http://www.w3.org/2000/svg">
	<symbol id="symbol" viewBox="0 0 512 512">
    <path d="M 239.41992 0.15234375 L 239.41992 56 L 200 56 L 200 190.34375 L 205.17188 185.17188 L 206.34375 184 L 240 184 L 240 56 L 244 56 L 244 184 L 268 184 L 268 56 L 272 56 L 272 184 L 305.65625 184 L 312 190.34375 L 312 56 L 272.01758 56 L 272.01758 0.15234375 L 239.41992 0.15234375 z M 128 40 L 128 496 L 168 496 L 168 472 L 176 472 L 192 472 L 192 408 L 173.40039 408 L 140 332.84961 L 140 250.34375 L 192 198.34375 L 192 56 L 192 40 L 128 40 z M 320 40 L 320 56 L 320 198.34375 L 372 250.34375 L 372 332.84961 L 338.59961 408 L 320 408 L 320 472 L 336 472 L 344 472 L 344 496 L 384 496 L 384 40 L 320 40 z M 209.65625 192 L 148 253.65625 L 148 331.15039 L 178.59961 400 L 333.40039 400 L 364 331.15039 L 364 253.65625 L 302.34375 192 L 272 192 L 240 192 L 209.65625 192 z M 312 240 A 32 32 0 0 1 344 272 A 32 32 0 0 1 312 304 A 32 32 0 0 1 280 272 A 32 32 0 0 1 312 240 z M 200 408 L 200 472 L 312 472 L 312 408 L 200 408 z M 176 479.80859 L 176 496 L 176 512 L 336 512 L 336 496 L 336 479.80859 L 176 479.80859 z " fill-rule="evenodd" />
	</symbol>
</svg>
