<?xml version="1.0" encoding="UTF-8" standalone="no"?>
<svg
   xmlns:dc="http://purl.org/dc/elements/1.1/"
   xmlns:cc="http://creativecommons.org/ns#"
   xmlns:rdf="http://www.w3.org/1999/02/22-rdf-syntax-ns#"
   xmlns:svg="http://www.w3.org/2000/svg"
   xmlns="http://www.w3.org/2000/svg"
   xmlns:sodipodi="http://sodipodi.sourceforge.net/DTD/sodipodi-0.dtd"
   xmlns:inkscape="http://www.inkscape.org/namespaces/inkscape"
   height="5.3333335in"
   viewBox="0 0 512 512"
   width="5.3333335in"
   version="1.1"
   id="svg9"
   sodipodi:docname="b_mech_inf.svg"
   inkscape:version="0.92.1 r15371">
  
    <symbol
       id="symbol"

       viewBox="0 0 512 512">
      <rect
         style="fill-opacity:0.502693;" 
         y="128"
         x="40"
         height="256"
         width="432"/>
      <path
         inkscape:connector-curvature="0"
         id="path10185"
         d="M 24,112 V 400 H 488 V 112 Z m 26.76923,28.8 H 461.23076 V 371.2 H 50.76923 Z"
         style="opacity:0.97000002;fill:#000000;fill-opacity:1;stroke:#000000;stroke-width:1.156919;stroke-linecap:butt;stroke-linejoin:miter;stroke-miterlimit:13;stroke-dasharray:none;stroke-opacity:1;paint-order:normal" />
      <path
         inkscape:connector-curvature="0"
         id="path10187"
         d="M 24,136 464,400 488,376 48,112 Z"
         style="fill:#000000;fill-opacity:0.93370164;stroke:#000000;stroke-width:1px;stroke-linecap:butt;stroke-linejoin:miter;stroke-opacity:1"
         inkscape:label="diag" />
      <path
         sodipodi:nodetypes="sssssssccssccssc"
         inkscape:connector-curvature="0"
         id="path10213"
         d="m 196,176 c -44.32,0 -80,35.68 -80,80 0,44.32 35.68,80 80,80 h 120 c 44.32,0 80,-35.68 80,-80 0,-44.32 -35.68,-80 -80,-80 z m 8,24 h 104 c 35.37352,0 60,20.47804 60,55.85156 v 0.29688 C 368,291.52196 343.37352,312 308,312 H 204 c -35.37352,0 -60,-20.47804 -60,-55.85156 v -0.29688 C 144,220.47804 168.62648,200 204,200 Z"
         style="opacity:0.97000002;fill:#000000;fill-opacity:1;stroke:#000000;stroke-width:1;stroke-linecap:butt;stroke-linejoin:miter;stroke-miterlimit:13;stroke-dasharray:none;stroke-opacity:1;paint-order:normal"
         inkscape:label="inner" />
      <path
         inkscape:connector-curvature="0"
         id="path10189"
         d="M 48,400 488,136 464,112 24,376 Z"
         style="fill:#000000;fill-opacity:1;stroke:#000000;stroke-width:1px;stroke-linecap:butt;stroke-linejoin:miter;stroke-opacity:1"
         inkscape:label="diag" />
    </symbol>
 
</svg>
