<?xml version="1.0" encoding="UTF-8" standalone="no"?>
<svg
   xmlns:dc="http://purl.org/dc/elements/1.1/"
   xmlns:cc="http://creativecommons.org/ns#"
   xmlns:rdf="http://www.w3.org/1999/02/22-rdf-syntax-ns#"
   xmlns:svg="http://www.w3.org/2000/svg"
   xmlns="http://www.w3.org/2000/svg"
   xmlns:sodipodi="http://sodipodi.sourceforge.net/DTD/sodipodi-0.dtd"
   xmlns:inkscape="http://www.inkscape.org/namespaces/inkscape"
   height="5.3333335in"
   viewBox="0 0 512 512"
   width="5.3333335in"
   version="1.1"
   id="svg9"
   sodipodi:docname="c_air.svg"
   inkscape:version="0.92.1 r15371">
  
    <symbol
       id="symbol"

       viewBox="0 0 512 512">
      <rect
         style="opacity:0.97000002;fill-opacity:0.50269321;stroke:#000000;stroke-width:25;"

         width="368"
         height="368.00003"
         x="72"
         y="72.000015" />
      <path
         style="opacity:0.97000002;fill:none;fill-opacity:1;stroke:#000000;stroke-width:20;stroke-linecap:butt;stroke-linejoin:miter;stroke-miterlimit:4;stroke-dasharray:none;stroke-opacity:1;paint-order:normal"
         id="path8873"
         sodipodi:type="arc"
         sodipodi:cx="254.91527"
         sodipodi:cy="256"
         sodipodi:rx="143.18645"
         sodipodi:ry="143.18645"
         sodipodi:start="3.9522283"
         sodipodi:end="3.9521934"
         sodipodi:open="true"
         d="m 156.25438,152.22916 a 143.18645,143.18645 0 0 1 202.43087,5.10905 143.18645,143.18645 0 0 1 -5.10728,202.43091 143.18645,143.18645 0 0 1 -202.43096,-5.10551 143.18645,143.18645 0 0 1 5.10375,-202.43101" />
      <path
         style="opacity:0.97000002;fill:none;fill-opacity:1;stroke:#000000;stroke-width:8.97920322;stroke-linecap:butt;stroke-linejoin:miter;stroke-miterlimit:4;stroke-dasharray:none;stroke-opacity:1;paint-order:normal"
         id="path8875"
         sodipodi:type="arc"
         sodipodi:cx="256.03339"
         sodipodi:cy="230.35818"
         sodipodi:rx="38.023571"
         sodipodi:ry="78.944817"
         sodipodi:start="3.9522283"
         sodipodi:end="3.9521934"
         sodipodi:open="true"
         d="m 229.8337,173.14488 a 38.023571,78.944817 0 0 1 53.7561,2.81683 38.023571,78.944817 0 0 1 -1.35625,111.60883 38.023571,78.944817 0 0 1 -53.75612,-2.81489 38.023571,78.944817 0 0 1 1.35531,-111.60887" />
      <path
         style="fill:#000000;stroke:#000000;stroke-width:1px;stroke-linecap:butt;stroke-linejoin:miter;stroke-opacity:1;fill-opacity:1"
         d="m 181.01934,291.86209 37.96804,-37.96804 v 14.9571 l -31.83179,30.48949 z"
         id="path8879"
         inkscape:connector-curvature="0"
         sodipodi:nodetypes="ccccc" />
      <path
         style="fill:#000000;fill-opacity:1;stroke:#000000;stroke-width:1.00021267px;stroke-linecap:butt;stroke-linejoin:miter;stroke-opacity:1"
         d="m 330.59017,293.36646 -37.96052,-37.99171 v 14.96642 l 31.82548,30.50851 z"
         id="path8879-2"
         inkscape:connector-curvature="0"
         sodipodi:nodetypes="ccccc" />
      <path
         style="fill:#000000;fill-opacity:1;stroke:#000000;stroke-width:1px;stroke-linecap:butt;stroke-linejoin:miter;stroke-opacity:1"
         d="m 183.98269,161.24256 37.96804,37.96804 v -14.9571 l -31.83179,-30.48949 z"
         id="path8879-5"
         inkscape:connector-curvature="0"
         sodipodi:nodetypes="ccccc" />
      <path
         style="fill:#000000;fill-opacity:1;stroke:#000000;stroke-width:1px;stroke-linecap:butt;stroke-linejoin:miter;stroke-opacity:1"
         d="m 328.38237,159.02531 -37.96804,37.96804 v -14.9571 l 31.83179,-30.48949 z"
         id="path8879-5-7"
         inkscape:connector-curvature="0"
         sodipodi:nodetypes="ccccc" />
      <path
         style="fill:#000000;stroke:#000000;stroke-width:1px;stroke-linecap:butt;stroke-linejoin:miter;stroke-opacity:1;fill-opacity:1"
         d="m 248.13456,309.88732 v 52.15811 h -9.58789 v 10.73844 h 34.24722 v -10.44199 h -9.3187 V 309.5038 Z"
         id="path8932"
         inkscape:connector-curvature="0"
         sodipodi:nodetypes="ccccccccc" />
    </symbol>
  
</svg>
