<?xml version="1.0" encoding="UTF-8" standalone="no"?>
<svg
   xmlns:dc="http://purl.org/dc/elements/1.1/"
   xmlns:cc="http://creativecommons.org/ns#"
   xmlns:rdf="http://www.w3.org/1999/02/22-rdf-syntax-ns#"
   xmlns:svg="http://www.w3.org/2000/svg"
   xmlns="http://www.w3.org/2000/svg"
   xmlns:sodipodi="http://sodipodi.sourceforge.net/DTD/sodipodi-0.dtd"
   xmlns:inkscape="http://www.inkscape.org/namespaces/inkscape"
   height="5.3333335in"
   viewBox="0 0 512 512"
   width="5.3333335in"
   version="1.1"
   id="svg9"
   sodipodi:docname="c_car.svg"
   inkscape:version="0.92.1 r15371">
  
    <symbol
       id="symbol"

       viewBox="0 0 512 512">
      <rect
         style="opacity:0.97000002;fill-opacity:0.50269321;stroke:#000000;stroke-width:25;"
         width="368"
         height="368.00003"
         x="72"
         y="72.000015" />
      <path
         style="opacity:0.97000002;fill:none;fill-opacity:1;stroke:#000000;stroke-width:10;stroke-linecap:butt;stroke-linejoin:miter;stroke-miterlimit:4;stroke-dasharray:none;stroke-opacity:1;paint-order:normal"
         d="M 220.13867 181.79297 L 220.13867 245.07227 L 154.17383 245.07227 L 154.17383 301.65234 L 170.48438 301.65234 L 173.72656 301.66406 A 25.120268 25.120268 0 0 0 179.88086 325.08789 A 25.120268 25.120268 0 0 0 215.39453 325.98242 A 25.120268 25.120268 0 0 0 222.4707 301.83398 L 285.2832 301.83398 A 25.120268 25.120268 0 0 0 291.48438 325.08594 A 25.120268 25.120268 0 0 0 326.99805 325.98242 A 25.120268 25.120268 0 0 0 334.05664 301.74414 L 334.42578 301.74414 L 355.13477 301.74414 L 355.13477 243.92188 L 289.9375 243.92188 L 289.9375 181.79297 L 220.13867 181.79297 z "
         id="path9179" />
      <path
         style="opacity:0.97000002;fill:none;fill-opacity:1;stroke:#000000;stroke-width:10;stroke-linecap:butt;stroke-linejoin:miter;stroke-miterlimit:4;stroke-dasharray:none;stroke-opacity:1;paint-order:normal"
         id="path9179-63"
         sodipodi:type="arc"
         sodipodi:cx="309.42374"
         sodipodi:cy="308.33899"
         sodipodi:rx="25.120268"
         sodipodi:ry="25.120268"
         sodipodi:start="3.9522283"
         sodipodi:end="3.9521934"
         sodipodi:open="true"
         d="m 292.11492,290.1337 a 25.120268,25.120268 0 0 1 35.51396,0.89631 25.120268,25.120268 0 0 1 -0.89601,35.51397 25.120268,25.120268 0 0 1 -35.51397,-0.8957 25.120268,25.120268 0 0 1 0.89538,-35.51398" />
      <path
         style="opacity:0.97000002;fill:none;fill-opacity:1;stroke:#000000;stroke-width:10;stroke-linecap:butt;stroke-linejoin:miter;stroke-miterlimit:4;stroke-dasharray:none;stroke-opacity:1;paint-order:normal"
         id="path9179-63-1"
         sodipodi:type="arc"
         sodipodi:cx="198.23793"
         sodipodi:cy="308.33838"
         sodipodi:rx="25.120268"
         sodipodi:ry="25.120268"
         sodipodi:start="3.9522283"
         sodipodi:end="3.9521934"
         sodipodi:open="true"
         d="m 180.92911,290.13309 a 25.120268,25.120268 0 0 1 35.51396,0.89631 25.120268,25.120268 0 0 1 -0.89601,35.51397 25.120268,25.120268 0 0 1 -35.51397,-0.8957 25.120268,25.120268 0 0 1 0.89539,-35.51398" />
      <path
         style="fill:none;stroke:#000000;stroke-width:6;stroke-linecap:butt;stroke-linejoin:miter;stroke-opacity:1;stroke-miterlimit:4;stroke-dasharray:none"
         d="M 275.36417,196.75023 V 252.7435 H 235.28679 V 196.74577 Z"
         id="path9243"
         inkscape:connector-curvature="0"
         sodipodi:nodetypes="ccccc" />
    </symbol>

</svg>
