<?xml version="1.0" encoding="UTF-8" standalone="no"?>
<svg
   xmlns:dc="http://purl.org/dc/elements/1.1/"
   xmlns:cc="http://creativecommons.org/ns#"
   xmlns:rdf="http://www.w3.org/1999/02/22-rdf-syntax-ns#"
   xmlns:svg="http://www.w3.org/2000/svg"
   xmlns="http://www.w3.org/2000/svg"
   xmlns:sodipodi="http://sodipodi.sourceforge.net/DTD/sodipodi-0.dtd"
   xmlns:inkscape="http://www.inkscape.org/namespaces/inkscape"
   height="512"
   viewBox="0 0 512 512"
   width="512"
   version="1.1"
   id="svg9"
   sodipodi:docname="hd_arrow.svg"
   inkscape:version="0.92.1 r15371">
 
    <symbol
       id="symbol"
       viewBox="0 0 512 512">
      <path
         d="M 22.627417,152 C 24.014878,146.08636 28.311807,140.09087 36,134 c 9.478043,-2.02754 17.867142,-2.99448 27,0 8.442474,2.28698 17.610186,4.10774 36,0 C 94.307864,105.29897 84.011049,95.340029 72,80 57.483849,78.974158 47.059757,84.495612 36,89 27.611663,90.469692 19.302867,91.780303 13.039528,89 8.6270954,83 8.4051018,77 9,71 c 7.380464,-6.778918 17.613639,-6.90151 27,-9 8.604566,1.202107 18.436066,2.970492 18,0 C 56.303706,52.469629 49.446286,43.855371 45,35 31.938918,25.206141 34.21805,22.123625 31.83179,17 33.639217,10.127036 38.890916,8.4204797 45,8 58.166452,4.9367571 67.222579,22.866445 79.101695,31.389224 97.315281,51.682549 105.23699,63.577019 117,80 c 15.55187,23.28963 27.67931,47.26414 36,72 7.90106,19.09894 15.09863,38.90137 18,63 4.60114,24.70216 18.82502,22.79983 29.71186,25.22707 41.5706,0.26913 82.4219,5.5733 123.28814,10.77293 38.7404,7.44243 117.68343,35.35482 117,27 -1.31122,-9.31933 -8.30599,-17.0765 -18,-27 -25.00007,-21.31948 -56.95724,-39.33558 -90,-54 -9.29962,-8.93672 -3.96421,-13.25186 0,-18 12.43737,-4.58316 18.4499,-0.59987 27,0 35.55497,13.46101 57.64619,29.87931 85.64506,45 20.47983,14.17657 33.72508,33.36171 44.87132,54 5.42686,9 9.47156,18 13.48362,27 -11.74965,16.62703 -18.55915,22.38573 -27,31.7334 -21.50171,19.02083 -44.78418,36.61705 -63,58.2666 -9.35017,15.50173 -18.37284,27.72844 -27,36 -13.10555,12.77283 -20.28982,7.12388 -27,0 -7.40251,-12.48354 -4.76766,-20.2436 0,-27 14.31211,-20.33725 27.48657,-30.43557 41.15726,-45 C 423.60052,335.98894 457.85491,318.61326 450,314 424.99069,295.3719 363.54849,295.3723 319.85196,287 278.05103,276.71876 179.57604,263.60167 180,269 c -0.48692,24.21256 -3.34357,59.59632 -3.57627,85.37511 C 173.48532,386.43403 162.38676,417.03503 153,440 c -16.38283,22.85151 -35.60966,37.17101 -54,54 -12.861269,8.57739 -20.593482,9.74614 -27,9 -10.353247,-2.73506 -16.3247,-8.75648 -18,-18 -1.384188,-9.88671 40.435727,-23.99548 36,-36 0.939765,-6.78795 -50.585317,4.6959 -54,-9 -3.057827,-9.66939 -0.153207,-12.18385 0,-18 11.354839,-11.00645 19.173643,-9.99039 27,-9 47.66659,16.13111 49.00286,11.75536 54,9 12.91128,-20.30887 29.96213,-59.9333 18,-63 -15.89567,0.40289 -56.990084,-7.07072 -63,-9 -15.440602,-4.70627 -26.675387,-12.21641 -27,-27 -0.737474,-5.60511 30,-1.81975 45,0 13.55898,4.44102 42.02334,14.50368 45,9 4.03704,-18.67373 8.45878,-55.89751 0,-63 -17.47361,-9.3167 -35.848797,-7.81444 -54,-9 -12.11698,0.11698 -22.086908,-1.91309 -27,-9 -3.143953,-4.21108 -1.844171,-9.05697 0,-13.98064 C 59.72425,225.81712 67.726468,223.72674 76.319593,224 99.039156,227.65001 135.10395,244.27934 135,233 136.49644,218.13314 127.72376,159.44095 117,161 87.038428,172.9029 63.965041,171.21567 40.652648,170 30.50274,164.65061 22.194181,159.01194 22.627417,152 Z"/>
    </symbol>
  </defs>
 
</svg>
