<?xml version="1.0" encoding="UTF-8" standalone="no"?>
<svg
   xmlns:dc="http://purl.org/dc/elements/1.1/"
   xmlns:cc="http://creativecommons.org/ns#"
   xmlns:rdf="http://www.w3.org/1999/02/22-rdf-syntax-ns#"
   xmlns:svg="http://www.w3.org/2000/svg"
   xmlns="http://www.w3.org/2000/svg"
   xmlns:sodipodi="http://sodipodi.sourceforge.net/DTD/sodipodi-0.dtd"
   xmlns:inkscape="http://www.inkscape.org/namespaces/inkscape"
   height="512"
   viewBox="0 0 512 512"
   width="512"
   version="1.1"
   id="svg9"
   sodipodi:docname="hd_arrow.svg"
   inkscape:version="0.92.1 r15371">
 
    <symbol
       id="symbol"
       viewBox="0 0 512 512">
      <path
         d="m 214.09755,81.695561 c -5.88201,-23.361056 -47.30618,68.922229 -75.16904,164.144649 -1.77953,5.60619 -6.94312,11.23142 -21.47687,6.13625 -5.91427,-5.7304 -13.09314,-9.51525 -9.97141,-29.14718 13.26051,-38.78273 22.42985,-77.15635 42.18671,-116.58872 16.42899,-31.624315 26.32954,-62.269364 55.99327,-95.87889 8.10622,-7.1083397 19.33469,-10.61407481 36.81749,-6.9032793 34.09371,18.0605233 63.69127,45.6753853 92.04373,75.9360773 21.47687,25.823382 41.02187,41.987412 64.43061,77.470142 3.0984,6.18891 1.94264,9.13977 -7.67031,18.40874 -3.96139,4.41883 -14.91942,6.53141 -23.77796,-3.06812 0,0 -121.24817,-138.254732 -121.76618,-118.79394 -0.77689,29.186796 30.66631,154.53376 38.92682,239.98485 13.13692,65.97197 20.96419,128.75816 29.14718,191.75777 3.24107,8.37516 -0.61501,25.33459 -15.34062,24.545 -16.77324,-2.18845 -18.31799,-0.66836 -29.14718,-16.10766 1.49016,-22.90929 -39.21807,-348.31748 -55.22624,-411.895689 z"
         />
    </symbol>
    
</svg>
