<?xml version="1.0" encoding="UTF-8" standalone="no"?>
<svg
   xmlns:dc="http://purl.org/dc/elements/1.1/"
   xmlns:cc="http://creativecommons.org/ns#"
   xmlns:rdf="http://www.w3.org/1999/02/22-rdf-syntax-ns#"
   xmlns:svg="http://www.w3.org/2000/svg"
   xmlns="http://www.w3.org/2000/svg"
   xmlns:sodipodi="http://sodipodi.sourceforge.net/DTD/sodipodi-0.dtd"
   xmlns:inkscape="http://www.inkscape.org/namespaces/inkscape"
   height="512"
   viewBox="0 0 512 512"
   width="512"
   version="1.1"
   id="svg9"
   sodipodi:docname="hd_end.svg"
   inkscape:version="0.92.1 r15371">
 
    <symbol
       id="symbol"

       viewBox="0 0 512 512">
      <path
         d="M 234.30508,353.08475 C 231.50671,245.5767 228.91506,139.28972 197.9661,37.423729 c -2.97533,-9.793062 26.16164,-18.966192 29.28814,-9.220339 30.55479,95.24463 45.35666,212.09168 43.38983,323.25423 -0.15712,8.8803 31.44209,-8.94283 98.16949,-115.52542 5.01994,-8.01827 29.84267,4.07458 25.49152,12.47458 -44.69334,86.28155 -136.13559,165.42373 -136.13559,165.42373 0,0 -52.5354,-32.15254 -138.84746,-122.57627 -6.97825,-7.31067 15.79007,-25.89274 20.61017,-22.23729 31.04765,23.5458 94.73031,97.79969 94.37288,84.0678 z"
         />
      <path
         d="m 141.55932,184.40678 c 21.9624,-18.63564 29.49972,-14.8258 35.3339,-8.80773 11.19172,11.54448 5.10847,24.95297 -9.84237,36.46875 -28.22625,21.74107 -50.17701,43.64211 -63.68994,74.12808 -6.006176,13.55027 -6.349331,33.64479 -6.276164,50.07531 0.404136,90.75406 126.969794,114.98305 147.525424,114.98305 60.00217,0 124.80928,-48.71062 146.44068,-104.67797 18.53641,-47.95962 29.91093,-145.93209 -32.54238,-150.77966 -20.71767,-1.60809 -31.12612,-3.28516 -31.31792,-16.89567 -0.21961,-15.58454 6.27446,-15.63066 21.01284,-16.18908 24.72985,-0.93698 49.10282,12.02273 67.06334,31.4874 7.81657,8.47119 17.12831,33.01004 19.44513,40.37701 5.49691,17.47888 5.44506,31.12346 5.53318,47.45704 0.1917,35.53685 -8.39237,62.0708 -20.9908,85.6955 -21.55161,40.4138 -51.50325,81.95071 -93.67166,98.58027 C 264.20471,490.51409 186.22092,485.54797 128,454.50847 74.760963,426.12497 62.741509,372.6336 63.939844,324.26754 65.26048,270.96534 99.66386,219.95611 141.55932,184.40678 Z"
         />
    </symbol>

</svg>
