<?xml version="1.0" encoding="UTF-8" standalone="no"?>
<svg
   xmlns:dc="http://purl.org/dc/elements/1.1/"
   xmlns:cc="http://creativecommons.org/ns#"
   xmlns:rdf="http://www.w3.org/1999/02/22-rdf-syntax-ns#"
   xmlns:svg="http://www.w3.org/2000/svg"
   xmlns="http://www.w3.org/2000/svg"
   xmlns:sodipodi="http://sodipodi.sourceforge.net/DTD/sodipodi-0.dtd"
   xmlns:inkscape="http://www.inkscape.org/namespaces/inkscape"
   height="512"
   viewBox="0 0 512 512"
   width="512"
   version="1.1"
   id="svg9"
   sodipodi:docname="hd_flag.svg"
   inkscape:version="0.92.1 r15371">

    <symbol
       id="symbol"

       viewBox="0 0 512 512">
      <path
         d="M 130.39453,1.1582031 C 90.795143,3.7887318 54.617574,32.287182 43.775291,60.389367 37.489813,76.680739 86.63295,184.96235 102.01562,248.9082 c 16.02483,66.61533 13.83271,137.4248 35.28321,202.4961 13.08241,39.68622 5.83669,52.50648 31.67247,50.43912 25.29852,-2.02437 16.54285,-22.16098 5.91229,-79.20217 -9.57674,-51.38666 -19.66135,-91.39623 -18.02625,-130.01289 0.59679,-14.09445 36.18912,-14.27374 50.26375,-13.31746 85.95203,23.5898 109.23508,62.21797 181.8847,63.91458 94.8902,6.89956 67.33823,-1.81595 43.07257,-192.06026 C 427.07088,106.05304 419.82713,50.836549 403.38033,46.597987 382.3572,41.180042 352.22073,73.673967 324.45508,73.257812 255.4557,72.223642 199.2499,-3.4157575 130.39453,1.1582031 Z m 13.04102,38.3515629 c 61.42163,3.519301 116.7191,68.926014 181.39128,68.845374 24.35177,-0.0304 40.99554,-23.384136 58.68879,-18.989906 17.69325,4.39423 17.64197,71.699866 23.47544,108.113016 5.61363,35.04083 7.69305,87.71807 11.04019,105.88894 3.29128,17.8676 -45.19009,6.17024 -67.49805,3.06836 -59.26031,-8.24003 -64.04163,-47.39915 -170.28038,-56.76032 -12.63895,-1.11367 -5.39984,0.22983 -37.96891,-2.68522 -13.34837,-1.19473 -10.44732,-54.20477 -21.9932,-88.15477 C 108.30547,123.59333 80.252762,72.945989 82.839844,66.355469 90.912313,45.791075 121.37967,38.246021 143.43555,39.509766 Z"
          />
    </symbol>
 
</svg>
