<?xml version="1.0" encoding="UTF-8" standalone="no"?>
<svg
   xmlns:dc="http://purl.org/dc/elements/1.1/"
   xmlns:cc="http://creativecommons.org/ns#"
   xmlns:rdf="http://www.w3.org/1999/02/22-rdf-syntax-ns#"
   xmlns:svg="http://www.w3.org/2000/svg"
   xmlns="http://www.w3.org/2000/svg"
   xmlns:sodipodi="http://sodipodi.sourceforge.net/DTD/sodipodi-0.dtd"
   xmlns:inkscape="http://www.inkscape.org/namespaces/inkscape"
   height="512"
   viewBox="0 0 512 512"
   width="512"
   version="1.1"
   id="svg9"
   sodipodi:docname="hd_join.svg"
   inkscape:version="0.92.1 r15371">
 
    <symbol
       id="symbol"
   
       viewBox="0 0 512 512">
      <path
         d="m 0.54237288,216.40678 c -0.46690862,-8.1975 3.40391032,-16.35601 15.72881312,-15.72881 12.324903,0.6272 151.853814,17.88774 154.231304,11.35128 2.37749,-6.53645 -82.09571,-59.62247 -82.09571,-59.62247 -6.804136,-6.54144 -13.259732,-14.23755 -7.593221,-26.0339 4.563541,-9.50022 19.123474,-6.7426 26.576271,-0.54237 L 234.0339,233.49153 c -0.0124,-0.0188 -63.73042,69.63721 -103.0748,127.9083 -5.4565,8.08137 -24.08882,41.45494 -42.935836,30.35224 C 79.068919,386.4771 83.041977,371.42843 90.390158,360.2014 115.87271,321.26748 186.03969,251.41733 176.81356,244.0678 167.58743,236.71827 33.180262,234.05756 21.694915,233.22034 10.209568,232.38312 1.0092815,224.60428 0.54237288,216.40678 Z"
         />
      <path
         d="m 223.45763,125.28814 c 21.32791,72.01366 25.63666,151.49651 25.49152,242.44067 -0.0181,11.34813 -0.89361,29.84821 17.35593,29.28814 20.37476,-0.62529 19.50307,-16.49035 18.98306,-27.66102 -4.92497,-105.79713 -9.45819,-160.42047 -22.77967,-242.44068 -2.67828,-16.49016 -4.60138,-36.035505 -24.40677,-33.084742 -20.42848,3.043595 -17.9286,20.367402 -14.64407,31.457632 z"
         />
      <path
         d="m 281.49153,241.35593 c 0,0 85.28314,-93.69914 144.27118,-118.23729 10.23152,-4.25616 25.56676,-11.39541 33.08475,-3.25423 4.85994,5.26279 2.66939,18.06923 -3.79661,21.15254 -57.69202,27.51041 -123.95492,79.37533 -114.44068,79.18644 5.54872,-0.11016 95.02964,7.25568 143.27949,16.27119 10.41418,1.9459 25.19897,4.05813 25.87504,17.06547 0.93667,18.02111 -17.96372,12.49906 -27.79261,10.74311 -68.59113,-12.25392 -148.67719,-17.03556 -156.54836,-17.5035 -13.10415,-0.77903 69.21277,73.04185 107.38983,125.28814 7.38761,10.11014 18.58624,24.75519 3.25424,37.42373 -11.31396,9.34851 -23.04506,-0.9281 -28.74577,-9.22034 -41.7392,-60.71378 -125.8305,-158.91526 -125.8305,-158.91526 z"
          />
    </symbol>
 
</svg>
