<?xml version="1.0" encoding="UTF-8" standalone="no"?>
<svg
   xmlns:dc="http://purl.org/dc/elements/1.1/"
   xmlns:cc="http://creativecommons.org/ns#"
   xmlns:rdf="http://www.w3.org/1999/02/22-rdf-syntax-ns#"
   xmlns:svg="http://www.w3.org/2000/svg"
   xmlns="http://www.w3.org/2000/svg"
   xmlns:sodipodi="http://sodipodi.sourceforge.net/DTD/sodipodi-0.dtd"
   xmlns:inkscape="http://www.inkscape.org/namespaces/inkscape"
   height="512"
   viewBox="0 0 512 512"
   width="512"
   version="1.1"
   id="svg9"
   sodipodi:docname="hd_objective.svg"
   inkscape:version="0.92.1 r15371">
 
    <symbol
       id="symbol"
    
       viewBox="0 0 512 512">
      <path
         d="M 454.51562 1.0605469 C 454.09953 1.031521 453.69797 1.0623242 453.31445 1.1582031 C 447.1782 2.6922652 413.42976 37.975156 408.06055 38.742188 C 402.69133 39.509219 368.17499 26.470156 345.16406 25.703125 C 322.15313 24.936094 283.03414 33.373517 276.13086 39.509766 C 269.22758 45.646014 267.69438 53.315782 274.59766 57.917969 C 281.50094 62.520155 316.01665 57.917657 342.0957 60.21875 C 368.17476 62.519843 381.98133 60.218908 380.44727 68.65625 C 378.91321 77.093592 299.14132 159.93227 289.16992 174.50586 C 279.19851 189.07945 266.92735 216.69336 255.42188 216.69336 C 243.9164 216.69336 186.38804 159.93343 171.81445 151.49609 C 157.24086 143.05875 111.98641 111.60921 106.61719 103.17188 C 101.24797 94.734535 161.84281 54.082655 187.92188 49.480469 C 214.00092 44.878282 253.1193 41.810859 261.55664 39.509766 C 269.99398 37.208672 289.17054 22.634843 265.39258 17.265625 C 241.61461 11.896408 181.78719 15.730627 157.24219 24.167969 C 132.6972 32.605311 90.510155 74.792657 82.839844 77.09375 C 75.169533 79.394843 44.488123 47.946172 36.050781 46.412109 C 27.613439 44.878047 11.504765 47.94633 9.9707031 54.849609 C 8.4366409 61.752889 7.6705537 76.327035 41.419922 93.96875 C 75.169289 111.61046 45.253906 143.05859 45.253906 143.05859 C 46.151855 143.35791 1.9512665 206.98247 19.175781 332.51562 C 32.036628 426.24613 108.58265 438.2936 104.31641 457.54102 C 100.2778 475.76148 84.373594 480.55126 85.140625 486.6875 C 85.907657 492.82375 98.179847 508.1646 106.61719 508.93164 C 115.05453 509.69867 127.32805 479.01734 132.69727 475.94922 C 138.06649 472.88109 204.79705 505.86469 270.76172 505.09766 C 336.7264 504.33063 383.51562 467.51172 383.51562 467.51172 C 383.51562 467.51172 409.59422 440.66656 415.73047 441.43359 C 421.86672 442.20062 474.02555 502.0293 482.46289 502.0293 C 490.90023 502.0293 500.87048 505.09578 505.47266 499.72656 C 510.07485 494.35735 507.77429 483.61922 506.24023 478.25 C 504.70616 472.88078 448.71289 429.16085 448.71289 419.18945 C 448.71289 409.21804 488.21438 339.41789 501.25391 316.02344 C 509.87534 300.55559 508.54187 163.76774 507.00781 153.0293 C 505.47374 142.29087 490.90007 98.57109 474.02539 83.230469 C 457.15071 67.889847 436.44055 62.520155 437.97461 57.917969 C 439.50867 53.315782 473.25867 22.633984 471.72461 18.798828 C 470.28643 15.20337 460.75712 1.4959344 454.51562 1.0605469 z M 421.35156 85.005859 C 429.27264 85.524265 439.21991 104.30446 445.83008 114.98242 C 452.88093 126.37225 471.32177 160.54141 476.20312 182.23633 C 481.08449 203.93124 472.3795 260.88228 467.52539 285.28906 C 462.74575 309.32139 436.06806 376.94965 419.79688 379.11914 C 403.52568 381.28864 330.84766 293.42383 330.84766 293.42383 C 330.84766 293.42383 281.491 250.03463 280.40625 242.44141 C 279.3215 234.84819 327.59233 187.11818 335.18555 177.35547 C 342.77877 167.59276 411.66129 87.321836 419.79688 85.152344 C 420.30535 85.016751 420.82349 84.971299 421.35156 85.005859 z M 95.146484 136.14648 C 103.84906 136.8134 125.26665 160.12387 132.69727 166.06836 C 140.36758 172.20461 227.80805 243.53867 227.04102 251.20898 C 226.27399 258.87929 227.80843 258.68863 200.19531 291.0957 C 165.28382 332.06821 133.46352 404.23258 128.86133 412.66992 C 124.25915 421.10726 120.42468 424.3666 99.714844 402.31445 C 61.842854 361.98779 55.22578 314.10624 51.390625 279.58984 C 47.555469 245.07344 64.400444 182.96383 75.169922 159.93359 C 85.9394 136.90335 85.333088 137.11309 94.345703 136.1543 C 94.599075 136.12734 94.865756 136.12497 95.146484 136.14648 z M 259.98438 276.06641 C 261.58356 275.85984 262.71233 278.33855 270.64453 285.83008 C 280.40724 295.05042 360.13632 374.77933 370.44141 387.25391 C 380.74649 399.72848 398.64351 412.20289 395.93164 420.88086 C 393.21978 429.55882 347.11924 462.10149 320.54297 469.15234 C 293.9667 476.20319 208.8126 465.35554 182.23633 458.30469 C 155.66006 451.25385 156.74609 441.49166 156.74609 433.89844 C 156.74609 426.30521 227.79688 319.45703 227.79688 319.45703 C 227.79688 319.45703 255.99908 278.23649 258.71094 276.60938 C 259.21941 276.30429 259.61533 276.11408 259.98438 276.06641 z "
          />
    </symbol>

</svg>
