<?xml version="1.0" encoding="UTF-8" standalone="no"?>
<svg
   xmlns:dc="http://purl.org/dc/elements/1.1/"
   xmlns:cc="http://creativecommons.org/ns#"
   xmlns:rdf="http://www.w3.org/1999/02/22-rdf-syntax-ns#"
   xmlns:svg="http://www.w3.org/2000/svg"
   xmlns="http://www.w3.org/2000/svg"
   xmlns:xlink="http://www.w3.org/1999/xlink"
   xmlns:sodipodi="http://sodipodi.sourceforge.net/DTD/sodipodi-0.dtd"
   xmlns:inkscape="http://www.inkscape.org/namespaces/inkscape"
   height="512"
   viewBox="0 0 512 512"
   width="512"
   version="1.1"
   id="svg9"
   sodipodi:docname="hd_pickup.svg"
   inkscape:version="0.92.1 r15371">
 
    <symbol
       id="symbol"
   
       viewBox="0 0 512 512">
      <path
         d="m 109.55932,206.10169 c 20.0678,24.40678 26.57627,48.81356 40.67797,53.69492 14.10169,4.88136 23.86441,-5.9661 23.86441,-13.01695 0,-7.05085 -49.35594,-71.59322 -46.64407,-74.30508 2.71186,-2.71187 4.33898,-4.33899 54.77966,29.8305 50.44068,34.1695 83.52542,69.42373 92.74576,85.69492 9.22034,16.27119 19.79661,40.94915 17.35593,46.10169 -6.07893,3.28647 -65.9268,8.31428 -130.89511,14.34647 -57.67913,5.35539 -112.176998,9.6153 -120.223531,10.06031 -6.85007,0.37884 -18.032691,3.06469 -17.898305,13.01695 0.08741,6.47316 1.144902,10.68861 21.694915,11.38983 18.46181,0.62997 107.508921,-8.27643 133.966101,-10.84745 29.26088,-2.84347 103.25761,-6.85345 144.75244,-7.91094 30.40656,-0.7749 144.87468,4.11433 152.4679,3.57195 7.59322,-0.54237 14.00562,-6.4338 13.55932,-13.01695 -0.70122,-10.34363 -6.50847,-17.8983 -18.98305,-18.44067 -12.47458,-0.54238 -149.69491,3.25423 -152.40678,-1.08475 -2.71186,-4.33898 35.25424,-61.28814 55.86441,-85.69491 20.61017,-24.40678 60.74576,-45.01695 68.88135,-49.89831 8.1356,-4.88136 15.18644,-9.22034 15.18644,-14.64407 0,-5.42373 3.79662,-13.55932 -7.59322,-15.18644 -11.38983,-1.62712 -34.16949,3.25424 -44.47457,10.30509 -10.30509,7.05084 -67.25424,58.03389 -78.1017,78.10169 -10.84745,20.0678 -10.30508,22.77966 -16.27118,22.23729 -5.9661,-0.54237 -27.02189,-32.24791 -40.65636,-48.50149 -17.9096,-21.34994 -41.7119,-37.02795 -53.26624,-42.64908 -8.04367,-3.91321 -37.87401,-22.20536 -42.213,-28.71384 -4.33898,-6.50847 2.71187,-7.59322 9.22034,-8.13559 6.50848,-0.54237 42.84746,6.50847 53.15255,8.13559 10.30508,1.62712 22.67154,-4.25069 24.40677,-13.01695 0.31534,-5.92646 -25.49152,-22.77966 -82.98305,-20.06779 -57.49152,2.71186 -95.457623,1.08474 -103.050844,19.52542 -7.59322,18.44068 33.084744,59.11864 33.084744,59.11864 z"
          />
    </symbol>

</svg>
