<?xml version="1.0" encoding="UTF-8" standalone="no"?>
<svg
   xmlns:dc="http://purl.org/dc/elements/1.1/"
   xmlns:cc="http://creativecommons.org/ns#"
   xmlns:rdf="http://www.w3.org/1999/02/22-rdf-syntax-ns#"
   xmlns:svg="http://www.w3.org/2000/svg"
   xmlns="http://www.w3.org/2000/svg"
   xmlns:sodipodi="http://sodipodi.sourceforge.net/DTD/sodipodi-0.dtd"
   xmlns:inkscape="http://www.inkscape.org/namespaces/inkscape"
   height="512"
   viewBox="0 0 512 512"
   width="512"
   version="1.1"
   id="svg9"
   sodipodi:docname="hd_start.svg"
   inkscape:version="0.92.1 r15371">
 
    <symbol
       id="symbol"
  
       viewBox="0 0 512 512">
      <path
          d="M 289.17072,43.344007 C 279.19931,34.139634 246.21698,4.9924529 233.94448,4.9924529 c -12.2725,0 -46.02186,27.6131191 -83.60639,79.0042021 -37.58452,51.391085 -39.11858,50.624055 -46.02186,65.964675 -6.903282,15.34062 -12.2725,19.17578 -1.53406,27.61312 10.73843,8.43734 17.64171,2.30109 26.07905,-5.36922 8.43734,-7.67031 34.5164,-50.62405 42.95374,-60.59546 8.43734,-9.9714 31.44828,-49.089986 39.11859,-48.322955 7.67031,0.767031 12.2725,81.305295 12.2725,90.509665 0,9.20438 3.06812,19.17578 0,23.77797 -0.47674,3.04735 -32.17684,-1.02023 -77.47014,27.2296 -16.42591,10.24499 -65.169773,66.35647 -71.333895,87.05803 -6.136248,20.60795 -25.352747,62.65936 -7.615799,115.31787 15.415275,45.76578 63.873414,75.67287 76.648594,81.04209 13.00018,5.46379 87.44155,25.31202 129.62826,19.17577 42.18671,-6.13625 77.47014,-25.31202 112.75357,-69.03279 35.28343,-43.72078 55.92771,-89.53216 60.59545,-127.32716 4.64175,-37.58453 -24.39395,-82.58339 -44.4878,-96.64592 -17.73195,-12.40957 -28.02299,-23.59812 -58.29436,-28.38015 -20.13823,-3.18127 -23.29023,7.39102 -22.24391,17.64171 1.01555,9.94917 9.20438,15.34063 21.47687,17.64172 12.2725,2.30109 37.58453,11.50547 48.32296,39.88562 10.73844,28.38015 13.07808,89.47943 -17.41705,136.00513 -29.616,45.18441 -49.31465,68.02513 -112.2112,71.09326 -62.89655,3.06812 -120.42388,-25.31203 -134.23044,-36.81749 -13.80656,-11.50547 -14.57359,-11.50547 -27.613119,-43.72078 -13.039528,-32.2153 3.835159,-79.77123 26.846089,-110.45247 23.01093,-30.68125 58.29436,-52.92515 73.63498,-56.7603 15.34062,-3.83516 23.77797,-6.13625 26.84609,-3.83516 3.06813,2.3011 -1.53406,90.50967 3.06813,108.91842 4.60218,18.40874 13.03952,18.40874 23.77796,18.40874 10.73843,0 16.87468,-14.57359 19.94281,-27.61312 3.06812,-13.03953 -13.80656,-90.50966 -9.20438,-98.17998 4.60219,-7.67031 22.24391,1.15055 29.14719,-1.53406 6.90328,-2.68461 9.58788,-7.28679 9.20437,-12.2725 -0.38352,-4.9857 -14.57359,-14.9571 -24.545,-16.87468 -9.9714,-1.91758 -14.42272,-9.26687 -17.87436,-13.48554 -3.45164,-4.21867 -5.9036,-70.88788 -5.52008,-82.77686 0.38351,-11.888982 -2.3011,-25.695542 0.76703,-28.38015 3.06812,-2.684609 54.07569,51.7746 58.29436,55.60975 4.21867,3.83516 20.70984,23.77797 29.14718,26.84609 8.43734,3.06813 23.01093,-4.60219 23.39445,-16.49117 0.38351,-11.88898 -77.47014,-85.523963 -77.47014,-85.523963 z"
         />
    </symbol>
 
</svg>
