<?xml version="1.0" encoding="UTF-8" standalone="no"?>
<svg
   xmlns:dc="http://purl.org/dc/elements/1.1/"
   xmlns:cc="http://creativecommons.org/ns#"
   xmlns:rdf="http://www.w3.org/1999/02/22-rdf-syntax-ns#"
   xmlns:svg="http://www.w3.org/2000/svg"
   xmlns="http://www.w3.org/2000/svg"
   xmlns:sodipodi="http://sodipodi.sourceforge.net/DTD/sodipodi-0.dtd"
   xmlns:inkscape="http://www.inkscape.org/namespaces/inkscape"
   height="5.3333335in"
   viewBox="0 0 512 512"
   width="5.3333335in"
   version="1.1"
   id="svg9"
   sodipodi:docname="hd_unknown.svg"
   inkscape:version="0.92.1 r15371">
 
    <symbol
       id="symbol"
   
       viewBox="0 0 512 512">
      <path
         d="m 265.08475,447.32204 c -6.21167,0.0576 -25.20235,23.10227 -25.89831,29.42372 0.60119,27.33642 8.38663,27.0562 14.64407,27.52543 9.17019,0.47981 4.93804,-6.0251 18.0339,-3.86442 12.07529,7.7036 18.13853,1.38637 21.55932,-1.42372 7.61037,-7.64324 9.66479,-17.35781 8,-22.91525 -3.85945,-12.67859 -8.91666,-27.1003 -36.33898,-28.74576 z"
        />
      <path
         d="m 143.18644,37.966101 c 0,0 30.37288,-31.9999996 117.15254,-31.4576267 86.77966,0.5423729 113.89831,17.8983047 132.33899,48.8135597 18.44067,30.915254 28.74576,111.728816 2.16949,135.593216 -26.57627,23.86441 -98.71187,66.1695 -103.59322,77.01695 -4.88136,10.84746 -17.35593,25.49153 -10.84746,35.25424 6.50847,9.76271 33.62712,24.94915 36.88136,30.91525 3.25423,5.96611 0.54237,13.01695 -7.59322,15.72882 -8.1356,2.71186 -37.42373,5.42373 -51.52543,-6.50848 -14.10169,-11.9322 -22.23729,-19.52542 -19.52542,-52.06779 2.71186,-32.54238 43.38983,-60.20339 51.52542,-67.79661 8.13559,-7.59322 58.57627,-43.93221 63.45763,-54.77966 4.88135,-10.84746 10.84746,-47.18644 6.50847,-62.91526 C 355.79661,90.033898 336.81356,49.898305 293.42373,47.728813 250.0339,45.559322 224.57284,46.183203 185.49153,60.745762 146.57528,75.246815 158.24048,75.000013 133.42373,83.525424 117.23802,89.085776 113.3434,82.798085 105.76271,73.762712 95.575134,61.620206 142.03108,36.425615 143.18644,37.966101 Z"
        />
    </symbol>
 
</svg>
