<?xml version="1.0" encoding="UTF-8" standalone="no"?>
<svg
   xmlns:dc="http://purl.org/dc/elements/1.1/"
   xmlns:cc="http://creativecommons.org/ns#"
   xmlns:rdf="http://www.w3.org/1999/02/22-rdf-syntax-ns#"
   xmlns:svg="http://www.w3.org/2000/svg"
   xmlns="http://www.w3.org/2000/svg"
   xmlns:sodipodi="http://sodipodi.sourceforge.net/DTD/sodipodi-0.dtd"
   xmlns:inkscape="http://www.inkscape.org/namespaces/inkscape"
   height="5.3333335in"
   viewBox="0 0 512 512"
   width="5.3333335in"
   version="1.1"
   id="svg9"
   sodipodi:docname="hd_warning.svg"
   inkscape:version="0.92.1 r15371">
 
    <symbol
       id="symbol"
    
       viewBox="0 0 512 512">
      <path
        d="m 237.42447,447.34384 c -6.39468,1.14458 -22.26262,26.27676 -21.96223,32.3788 5.02153,25.75396 13.00287,24.12263 19.52959,23.46842 9.53134,-1.15537 4.12074,-6.56614 17.96994,-6.82035 13.68956,5.16832 18.9233,-1.87163 21.99751,-5.13019 6.61525,-8.5658 7.16902,-18.11604 4.55783,-23.08106 -6.02045,-11.3163 -13.55643,-24.07134 -42.09264,-20.81562 z"
         />
      <path
         d="m 202.84746,252.74576 c 4.33898,13.55932 6.50847,30.91526 21.69491,32 15.18644,1.08475 18.44068,-22.23729 15.72882,-32 -2.71187,-9.76271 -17.5164,-59.29772 -19.52542,-73.76271 -2.71187,-19.52542 -17.35594,-73.76271 -21.69492,-79.18644 -4.33899,-5.423729 -10.84746,-15.728814 -7.59322,-23.864407 3.25423,-8.135593 26.0339,-3.79661 37.42373,-8.135593 11.38983,-4.338983 43.9322,-17.898305 48.81356,-18.983051 4.88135,-1.084746 13.01694,1.627119 9.22033,9.762712 -3.79661,8.135593 -17.35593,56.677959 -17.35593,66.440679 0,9.76271 -10.84746,77.83051 -13.55932,87.59322 -2.71186,9.76271 -14.64407,104.13559 -12.47458,107.9322 2.1695,3.79661 1.08475,16.27119 13.01695,14.1017 11.93221,-2.16949 11.38983,-9.76271 14.64407,-22.23729 3.25424,-12.47458 20.61017,-60.20339 21.69492,-72.13559 1.08474,-11.93221 10.30508,-78.1017 16.27118,-90.57627 5.9661,-12.47458 18.44068,-87.322039 23.32204,-92.745768 4.88136,-5.423729 14.64406,-21.152542 14.64406,-26.576271 0,-5.423729 -3.79661,-14.101695 -7.05084,-16.813559 C 336.81356,10.847457 327.05085,4.8813557 320,7.0508472 312.94915,9.2203387 300.47458,15.728813 293.9661,18.98305 c -6.50847,3.254238 -82.44068,13.559323 -90.0339,15.186441 -7.59322,1.627119 -24.94915,6.508475 -32,7.050848 -7.05084,0.542373 -17.35593,5.423729 -18.44067,13.559322 -1.08475,8.135593 1.08475,31.457623 5.9661,38.508474 2.36632,3.418017 15.9259,40.278305 22.58831,78.808515 7.32463,42.35994 20.80152,80.64911 20.80152,80.64911 z"
         />
    </symbol>
 
</svg>
