<?xml version="1.0" encoding="UTF-8" standalone="no"?>
<svg
   xmlns:dc="http://purl.org/dc/elements/1.1/"
   xmlns:cc="http://creativecommons.org/ns#"
   xmlns:rdf="http://www.w3.org/1999/02/22-rdf-syntax-ns#"
   xmlns:svg="http://www.w3.org/2000/svg"
   xmlns="http://www.w3.org/2000/svg"
   xmlns:xlink="http://www.w3.org/1999/xlink"
   xmlns:sodipodi="http://sodipodi.sourceforge.net/DTD/sodipodi-0.dtd"
   xmlns:inkscape="http://www.inkscape.org/namespaces/inkscape"
   height="512"
   viewBox="0 0 512 512"
   width="512"
   version="1.1"
   id="svg9"
   sodipodi:docname="mil_flag.svg"
   inkscape:version="0.92.1 r15371">
 
    <symbol
       id="symbol"

       viewBox="0 0 512 512">
      <path
        d="M 200,0 C 152,0 72,40 72,40 v 472 h 32 V 272 c 0,0 56,-32 96,-32 56,0 104,72 160,72 28.72088,0 80,-32 80,-32 V 32 c 0,0 -50.18576,40 -80,40 C 304,72 256,0 200,0 Z m 0,32 c 56,0 104,72 160,72 16.86549,0 48,-16 48,-16 v 176 c 0,0 -31.13451,16 -48,16 -56,0 -104,-72 -160,-72 -32,0 -96,32 -96,32 V 64 c 0,0 64,-32 96,-32 z"
          />
    </symbol>
 
</svg>
