<?xml version="1.0" encoding="UTF-8" standalone="no"?>
<svg
   xmlns:dc="http://purl.org/dc/elements/1.1/"
   xmlns:cc="http://creativecommons.org/ns#"
   xmlns:rdf="http://www.w3.org/1999/02/22-rdf-syntax-ns#"
   xmlns:svg="http://www.w3.org/2000/svg"
   xmlns="http://www.w3.org/2000/svg"
   xmlns:sodipodi="http://sodipodi.sourceforge.net/DTD/sodipodi-0.dtd"
   xmlns:inkscape="http://www.inkscape.org/namespaces/inkscape"
   height="512"
   viewBox="0 0 512 512"
   width="512"
   version="1.1"
   id="svg9"
   sodipodi:docname="mil_objective.svg"
   inkscape:version="0.92.1 r15371">
 
    <symbol
       id="symbol"
  
       viewBox="0 0 512 512">
      <path
         
         d="M 256,0 A 256,256 0 0 0 0,256 256,256 0 0 0 256,512 256,256 0 0 0 512,256 256,256 0 0 0 256,0 Z m 0,32 A 224,224 0 0 1 480,256 224,224 0 0 1 256,480 224,224 0 0 1 32,256 224,224 0 0 1 256,32 Z" />
      <path
         d="M 223,253 70,406 106,442 259,289 403,433 439,397 295,253 439,109 403,73 259,217 115,73 79,109 Z"
         />
    </symbol>
 
</svg>
