<?xml version="1.0" encoding="UTF-8" standalone="no"?>
<svg
   xmlns:dc="http://purl.org/dc/elements/1.1/"
   xmlns:cc="http://creativecommons.org/ns#"
   xmlns:rdf="http://www.w3.org/1999/02/22-rdf-syntax-ns#"
   xmlns:svg="http://www.w3.org/2000/svg"
   xmlns="http://www.w3.org/2000/svg"
   xmlns:sodipodi="http://sodipodi.sourceforge.net/DTD/sodipodi-0.dtd"
   xmlns:inkscape="http://www.inkscape.org/namespaces/inkscape"
   height="512"
   viewBox="0 0 512 512"
   width="512"
   version="1.1"
   id="svg9"
   sodipodi:docname="mil_ambush.svg"
   inkscape:version="0.92.1 r15371">
  
    <symbol
       id="symbol"
 
       viewBox="0 0 512 512">
      <path
         d="m 0,80 v 32 h 80 c 11.152811,16.05456 16.417728,32.05392 16,48 H 16 v 32 h 80 c 8.14829,16.20356 10.58379,32.19498 8,48 H 24 v 32 h 80 c 1.96988,14.59615 1.19495,30.02337 -8,48 H 16 v 32 h 80 c 0.172058,15.84017 -4.963733,31.83443 -16,48 H 8 v 32 h 64 c -7.984707,15.93818 -21.244996,31.93734 -40,48 l 24,24 c 64,-64 80,-144 80,-232 H 448 L 344,376 368,400 512,256 368,112 344,136 448,240 H 136 C 136,152 120,72 56,8 L 32,32 c 18.188874,15.666218 31.896979,31.640455 40,48 z"
         />
    </symbol>
 
</svg>
