<?xml version="1.0" encoding="UTF-8" standalone="no"?>
<svg
   xmlns:dc="http://purl.org/dc/elements/1.1/"
   xmlns:cc="http://creativecommons.org/ns#"
   xmlns:rdf="http://www.w3.org/1999/02/22-rdf-syntax-ns#"
   xmlns:svg="http://www.w3.org/2000/svg"
   xmlns="http://www.w3.org/2000/svg"
   xmlns:sodipodi="http://sodipodi.sourceforge.net/DTD/sodipodi-0.dtd"
   xmlns:inkscape="http://www.inkscape.org/namespaces/inkscape"
   height="5.3333335in"
   viewBox="0 0 512 512"
   width="5.3333335in"
   version="1.1"
   id="svg9"
   sodipodi:docname="n_armor.svg"
   inkscape:version="0.92.1 r15371">
 
    <symbol
       id="symbol"
  
       viewBox="0 0 512 512">
      <rect
         style="fill-opacity:0.502693;stroke:#000000;stroke-width:25px;" 
         width="368"
         height="368.00003"
         x="72"
         y="72.000015" />
      <path
         style="opacity:0.97000002;fill:#000000;fill-opacity:1;stroke:#000000;stroke-width:1;stroke-linecap:butt;stroke-linejoin:miter;stroke-miterlimit:13;stroke-dasharray:none;stroke-opacity:1;paint-order:normal"
         d="m 198,176.16948 c -44.32,0 -80,35.68 -80,80 0,44.32 35.68,80 80,80 h 120 c 44.32,0 80,-35.68 80,-80 0,-44.32 -35.68,-80 -80,-80 z m 8,24 h 104 c 35.37352,0 60,20.47804 60,55.85156 v 0.29688 c 0,35.37352 -24.62648,55.85156 -60,55.85156 H 206 c -35.37352,0 -60,-20.47804 -60,-55.85156 v -0.29688 c 0,-35.37352 24.62648,-55.85156 60,-55.85156 z"
         />
    </symbol>

</svg>
