<?xml version="1.0" encoding="UTF-8" standalone="no"?>
<svg
   xmlns:dc="http://purl.org/dc/elements/1.1/"
   xmlns:cc="http://creativecommons.org/ns#"
   xmlns:rdf="http://www.w3.org/1999/02/22-rdf-syntax-ns#"
   xmlns:svg="http://www.w3.org/2000/svg"
   xmlns="http://www.w3.org/2000/svg"
   xmlns:sodipodi="http://sodipodi.sourceforge.net/DTD/sodipodi-0.dtd"
   xmlns:inkscape="http://www.inkscape.org/namespaces/inkscape"
   height="5.3333335in"
   viewBox="0 0 512 512"
   width="5.3333335in"
   version="1.1"
   id="svg9"
   sodipodi:docname="n_maint.svg"
   inkscape:version="0.92.1 r15371">
 
    <symbol
       id="symbol"
 
       viewBox="0 0 512 512">
      <rect
         style="fill-opacity:0.502693;stroke:#000000;stroke-width:25px;" 
         width="368"
         height="368.00003"
         x="72"
         y="72.000015" />
      <path
         sodipodi:nodetypes="ccsccccccsccccc"
         inkscape:connector-curvature="0"
         id="path10021"
         d="m 104,176 v 24 c 0,0 56,4 56,60 0,56 -56,52 -56,52 v 24 c 24,0 80,-16 80,-64 h 144 c 0,48 56,64 80,64 v -24 c 0,0 -56,3.5 -56,-52.5 0,-56 56,-59.5 56,-59.5 v -24 c -24,0 -80,8 -80,72 H 184 c 0,-56 -48,-72 -80,-72 z"
         style="fill:#000000;fill-opacity:1;stroke:#000000;stroke-width:1px;stroke-linecap:butt;stroke-linejoin:miter;stroke-opacity:1" />
    </symbol>
 
</svg>
