<?xml version="1.0" encoding="UTF-8" standalone="no"?>
<svg
   xmlns:dc="http://purl.org/dc/elements/1.1/"
   xmlns:cc="http://creativecommons.org/ns#"
   xmlns:rdf="http://www.w3.org/1999/02/22-rdf-syntax-ns#"
   xmlns:svg="http://www.w3.org/2000/svg"
   xmlns="http://www.w3.org/2000/svg"
   xmlns:sodipodi="http://sodipodi.sourceforge.net/DTD/sodipodi-0.dtd"
   xmlns:inkscape="http://www.inkscape.org/namespaces/inkscape"
   height="5.3333335in"
   viewBox="0 0 512 512"
   width="5.3333335in"
   version="1.1"
   id="svg9"
   sodipodi:docname="n_naval.svg"
   inkscape:version="0.92.1 r15371">
 
    <symbol
       id="symbol"

       viewBox="0 0 512 512">
      <rect
         style="fill-opacity:0.502693;stroke:#000000;stroke-width:25px;" 
         width="368"
         height="368.00003"
         x="72"
         y="72.000015" />
      <path
         inkscape:connector-curvature="0"
         id="path10148"
         d="m 261.10444,151.06641 a 27.708558,20.949747 0 0 0 -20.19627,5.75 l -0.0879,0.0645 a 27.708558,20.949747 0 0 0 -0.83883,29.60352 27.708558,20.949747 0 0 0 39.15457,0.66796 27.708558,20.949747 0 0 0 0.92508,-29.60351 27.708558,20.949747 0 0 0 -18.95661,-6.48242 z m -0.55302,10.05859 a 13.854279,10.890571 0 0 1 9.47915,3.36914 13.854279,10.890571 0 0 1 -0.46339,15.38867 13.854279,10.890571 0 0 1 -19.57729,-0.3457 13.854279,10.890571 0 0 1 0.42111,-15.39063 l 0.0423,-0.0332 a 13.854279,10.890571 0 0 1 10.09813,-2.98828 z"
         style="opacity:0.97000002;fill:#000000;fill-opacity:0.99642855;stroke:#000000;stroke-width:0.93053341;stroke-linecap:butt;stroke-linejoin:miter;stroke-miterlimit:13;stroke-dasharray:none;stroke-opacity:1;paint-order:normal" />
      <path
         sodipodi:nodetypes="cccsccccccssccccscccccc"
         inkscape:connector-curvature="0"
         id="path10117"
         d="m 176,192 v 16 h 72 v 128 c 0,0 -16,0 -40,-16 -24,-16 -24,-24 -24,-24 l 8,-8 -32,-24 v 56 l 8,-8 c 0,0 16,22.79999 40,32.25 40,15.75002 64,15.75002 104.01758,-0.5 C 336,334.01141 345.10352,312 345.10352,312 L 352,320 v -56 l -27.58594,24 6.89649,8 c 0,0 1.9e-4,8 -20.68946,24 C 289.93143,336 272,336.00002 272,336.00002 v -128 L 338.20703,208 v -16 z"
         style="opacity:0.97000002;fill:#000000;fill-opacity:1;stroke:#000000;stroke-width:0.99248952;stroke-linecap:butt;stroke-linejoin:miter;stroke-miterlimit:13;stroke-dasharray:none;stroke-opacity:1;paint-order:normal" />
    </symbol>
  
</svg>
