<?xml version="1.0" encoding="UTF-8" standalone="no"?>
<svg
   xmlns:dc="http://purl.org/dc/elements/1.1/"
   xmlns:cc="http://creativecommons.org/ns#"
   xmlns:rdf="http://www.w3.org/1999/02/22-rdf-syntax-ns#"
   xmlns:svg="http://www.w3.org/2000/svg"
   xmlns="http://www.w3.org/2000/svg"
   xmlns:sodipodi="http://sodipodi.sourceforge.net/DTD/sodipodi-0.dtd"
   xmlns:inkscape="http://www.inkscape.org/namespaces/inkscape"
   height="5.3333335in"
   viewBox="0 0 512 512"
   width="5.3333335in"
   version="1.1"
   id="svg9"
   sodipodi:docname="n_plane.svg"
   inkscape:version="0.92.1 r15371">
  
    <symbol
       id="symbol"
    
       viewBox="0 0 512 512">
      <path
         sodipodi:nodetypes="cccccccccccccccccscccccccccccccccc"
         inkscape:connector-curvature="0"
         id="path8461"
         d="m 165.91211,204.97656 c -14.02606,0.14561 -27.52065,5.43347 -37.73633,14.86133 L 128,220 c -22.15779,20.62726 -22.91214,54.77842 -1.68555,76.30859 21.22665,21.53056 54.64168,18.05713 78.61328,1.71875 11.85596,-12.89902 35.07005,-25.95233 51.09961,-26.33789 15.97366,0.2963 37.67823,11.9527 50.11328,24.78125 25.46909,16.93312 56.40774,22.29851 78.61133,1.71875 22.20409,-20.58017 23.03536,-54.72953 1.85743,-76.30468 C 365.43102,200.30934 330.24993,199.46583 308,220 l -0.17578,0.16211 C 295.78419,233.61863 271.93521,248.04613 256,248 c -36.93803,-3.95601 -53.47351,-41.19048 -87.27734,-42.98438 -0.93899,-0.0363 -1.87548,-0.0488 -2.81055,-0.0391 z m -0.77149,22.76758 c 0.49907,-0.005 0.99885,0.001 1.5,0.0215 4.74036,0.19996 9.36427,1.4823 13.48438,3.85938 0,0 47.6875,22.1875 47.8125,26.1875 0.125,4 -47.8125,26.0625 -47.8125,26.0625 -11.81917,6.80066 -26.70038,4.52562 -36.11719,-5.39062 -11.32976,-11.961 -10.92766,-30.93453 0.89844,-42.39454 L 145,236 c 5.45232,-5.23769 12.65469,-8.17509 20.14062,-8.25586 z m 182.76172,0.27539 c 7.47184,0.08 14.65951,2.9913 20.10157,8.17969 l 0.0937,0.0879 c 11.80383,11.35213 12.2049,30.14769 0.89648,41.99609 -9.39907,9.82289 -24.25192,12.07649 -36.04883,5.33985 0,0 -48.38452,-21.73688 -48.25976,-25.69922 0.12477,-3.96235 48.25976,-26.0586 48.25976,-26.0586 4.11235,-2.3547 8.72756,-3.62418 13.45899,-3.82226 0.50021,-0.02 0.99992,-0.0288 1.49804,-0.0234 z"
         style="opacity:0.97000002;fill:#000000;fill-opacity:0.96785715;stroke:#000000;stroke-width:0.97937167;stroke-linecap:butt;stroke-linejoin:miter;stroke-miterlimit:13;stroke-dasharray:none;stroke-opacity:1;paint-order:normal" />
      <rect
         style="fill-opacity:0.502693;stroke:#000000;stroke-width:25px;" 
         width="368"
         height="368.00003"
         x="72"
         y="72.000015" />
    </symbol>
 
</svg>
