<?xml version="1.0" encoding="UTF-8" standalone="no"?>
<svg
   xmlns:dc="http://purl.org/dc/elements/1.1/"
   xmlns:cc="http://creativecommons.org/ns#"
   xmlns:rdf="http://www.w3.org/1999/02/22-rdf-syntax-ns#"
   xmlns:svg="http://www.w3.org/2000/svg"
   xmlns="http://www.w3.org/2000/svg"
   xmlns:sodipodi="http://sodipodi.sourceforge.net/DTD/sodipodi-0.dtd"
   xmlns:inkscape="http://www.inkscape.org/namespaces/inkscape"
   height="5.3333335in"
   viewBox="0 0 512 512"
   width="5.3333335in"
   version="1.1"
   id="svg9"
   sodipodi:docname="o_armor.svg"
   inkscape:version="0.92.1 r15371">
  
    <symbol
       id="symbol"
     
       viewBox="0 0 512 512">
      <rect
         style="fill-opacity:0.502693;stroke:#000000;stroke-width:25px;" 
         width="328.67175"
         height="328.67178"
         x="197.70282"
         y="-164.33588"
         transform="rotate(45)" />
      <path
         sodipodi:nodetypes="sssssssccssccssc"
         inkscape:connector-curvature="0"
         id="rect9189"
         d="m 196.93934,176.16289 c -43.73604,0 -78.94593,35.20989 -78.94593,78.94593 0,43.73604 35.20989,78.94593 78.94593,78.94593 h 118.41889 c 43.73605,0 78.94593,-35.20989 78.94593,-78.94593 0,-43.73604 -35.20988,-78.94593 -78.94593,-78.94593 z m 7.89459,23.68378 h 102.62971 c 34.90744,0 59.20944,20.20822 59.20944,55.11567 v 0.29296 c 0,34.90745 -24.302,55.11567 -59.20944,55.11567 H 204.83393 c -34.90744,0 -59.20944,-20.20822 -59.20944,-55.11567 v -0.29296 c 0,-34.90745 24.302,-55.11567 59.20944,-55.11567 z"
         style="opacity:0.97000002;fill:#000000;fill-opacity:1;stroke:#000000;stroke-width:0.9868241;stroke-linecap:butt;stroke-linejoin:miter;stroke-miterlimit:13;stroke-dasharray:none;stroke-opacity:1;paint-order:normal" />
    </symbol>
 
</svg>
