<?xml version="1.0" encoding="UTF-8" standalone="no"?>
<svg
   xmlns:dc="http://purl.org/dc/elements/1.1/"
   xmlns:cc="http://creativecommons.org/ns#"
   xmlns:rdf="http://www.w3.org/1999/02/22-rdf-syntax-ns#"
   xmlns:svg="http://www.w3.org/2000/svg"
   xmlns="http://www.w3.org/2000/svg"
   xmlns:sodipodi="http://sodipodi.sourceforge.net/DTD/sodipodi-0.dtd"
   xmlns:inkscape="http://www.inkscape.org/namespaces/inkscape"
   height="5.3333335in"
   viewBox="0 0 512 512"
   width="5.3333335in"
   version="1.1"
   id="svg9"
   sodipodi:docname="o_maint.svg"
   inkscape:version="0.92.1 r15371">
 
    <symbol
       id="symbol"
   
       viewBox="0 0 512 512">
      <rect
         style="fill-opacity:0.502693;stroke:#000000;stroke-width:25px;" 
         width="328.67175"
         height="328.67178"
         x="197.70282"
         y="-164.33588"
         transform="rotate(45)" />
      <path
         style="fill:#000000;fill-opacity:1;stroke:#000000;stroke-width:0.78789049px;stroke-linecap:butt;stroke-linejoin:miter;stroke-opacity:1"
         d="m 134.30313,193.97227 v 18.60832 c 0,0 44.83569,3.10139 44.83569,46.5208 0,43.41941 -44.83569,40.31802 -44.83569,40.31802 v 18.60832 c 19.21529,0 64.05098,-12.40555 64.05098,-49.62218 h 115.29178 c 0,37.21663 44.83569,49.62218 64.05098,49.62218 v -18.60832 c 0,0 -44.83569,2.71371 -44.83569,-40.7057 0,-43.41941 44.83569,-46.13312 44.83569,-46.13312 v -18.60832 c -19.21529,0 -64.05098,6.20277 -64.05098,55.82496 H 198.35411 c 0,-43.41941 -38.43059,-55.82496 -64.05098,-55.82496 z"
         id="path10021"
         inkscape:connector-curvature="0"
         sodipodi:nodetypes="ccsccccccsccccc" />
    </symbol>
 
</svg>
