<?xml version="1.0" encoding="UTF-8" standalone="no"?>
<svg
   xmlns:dc="http://purl.org/dc/elements/1.1/"
   xmlns:cc="http://creativecommons.org/ns#"
   xmlns:rdf="http://www.w3.org/1999/02/22-rdf-syntax-ns#"
   xmlns:svg="http://www.w3.org/2000/svg"
   xmlns="http://www.w3.org/2000/svg"
   xmlns:sodipodi="http://sodipodi.sourceforge.net/DTD/sodipodi-0.dtd"
   xmlns:inkscape="http://www.inkscape.org/namespaces/inkscape"
   height="5.3333335in"
   viewBox="0 0 512 512"
   width="5.3333335in"
   version="1.1"
   id="svg9"
   sodipodi:docname="o_mech_inf.svg"
   inkscape:version="0.92.1 r15371">
 
    <symbol
       id="symbol"
     
       viewBox="0 0 512 512">
      <rect
         style="fill-opacity:0.502693;stroke:#000000;stroke-width:25px;" 
         width="328.67175"
         height="328.67178"
         x="197.70282"
         y="-164.33588"
         transform="rotate(45)" />
      <path
         inkscape:connector-curvature="0"
         id="path10187"
         d="m 125.9124,150.19651 240.79744,232.66838 18.85937,-21.61318 -238.8826,-234.8159 z"
         style="fill:#000000;fill-opacity:0.93370164;stroke:#000000;stroke-width:0.67444414px;stroke-linecap:butt;stroke-linejoin:miter;stroke-opacity:1"
         inkscape:label="diag"
         sodipodi:nodetypes="ccccc" />
      <path
         sodipodi:nodetypes="sssssssccssccssc"
         inkscape:connector-curvature="0"
         id="path10213"
         d="m 196,176 c -44.32,0 -80,35.68 -80,80 0,44.32 35.68,80 80,80 h 120 c 44.32,0 80,-35.68 80,-80 0,-44.32 -35.68,-80 -80,-80 z m 8,24 h 104 c 35.37352,0 60,20.47804 60,55.85156 v 0.29688 C 368,291.52196 343.37352,312 308,312 H 204 c -35.37352,0 -60,-20.47804 -60,-55.85156 v -0.29688 C 144,220.47804 168.62648,200 204,200 Z"
         style="opacity:0.97000002;fill:#000000;fill-opacity:1;stroke:#000000;stroke-width:1;stroke-linecap:butt;stroke-linejoin:miter;stroke-miterlimit:13;stroke-dasharray:none;stroke-opacity:1;paint-order:normal"
         inkscape:label="inner" />
      <path
         inkscape:connector-curvature="0"
         id="path10189"
         d="M 144.32797,384.51094 387.21733,144.97087 367.97597,123.66279 122.19473,360.16669 Z"
         style="fill:#000000;fill-opacity:1;stroke:#000000;stroke-width:0.71394247px;stroke-linecap:butt;stroke-linejoin:miter;stroke-opacity:1"
         inkscape:label="diag"
         sodipodi:nodetypes="ccccc" />
    </symbol>
 
</svg>
