<?xml version="1.0" encoding="UTF-8" standalone="no"?>
<svg
   xmlns:dc="http://purl.org/dc/elements/1.1/"
   xmlns:cc="http://creativecommons.org/ns#"
   xmlns:rdf="http://www.w3.org/1999/02/22-rdf-syntax-ns#"
   xmlns:svg="http://www.w3.org/2000/svg"
   xmlns="http://www.w3.org/2000/svg"
   xmlns:sodipodi="http://sodipodi.sourceforge.net/DTD/sodipodi-0.dtd"
   xmlns:inkscape="http://www.inkscape.org/namespaces/inkscape"
   height="5.3333335in"
   viewBox="0 0 512 512"
   width="5.3333335in"
   version="1.1"
   id="svg9"
   sodipodi:docname="o_ordanance.svg"
   inkscape:version="0.92.1 r15371">
 
    <symbol
       id="symbol"
   
       viewBox="0 0 512 512">
      <rect
         style="fill-opacity:0.502693;stroke:#000000;stroke-width:25px;" 
         width="328.67175"
         height="328.67178"
         x="197.70282"
         y="-164.33588"
         transform="rotate(45)" />
      <path
         style="opacity:0.97000002;fill:none;fill-opacity:1;stroke:#000000;stroke-width:15;stroke-linecap:butt;stroke-linejoin:miter;stroke-miterlimit:4;stroke-dasharray:none;stroke-opacity:1;paint-order:normal"
         id="path8443"
         sodipodi:type="arc"
         sodipodi:cx="256"
         sodipodi:cy="256"
         sodipodi:rx="68"
         sodipodi:ry="68"
         sodipodi:start="3.9522283"
         sodipodi:end="3.9521934"
         sodipodi:open="true"
         d="m 209.14542,206.71868 a 68,68 0 0 1 96.13549,2.42631 68,68 0 0 1 -2.42547,96.13551 68,68 0 0 1 -96.13553,-2.42463 68,68 0 0 1 2.42379,-96.13556" />
      <path
         style="fill:#000000;fill-opacity:1;stroke:#000000;stroke-width:1px;stroke-linecap:butt;stroke-linejoin:miter;stroke-opacity:1"
         d="m 208,216.00002 -32,-32 8,-8 32,32 z"
         id="path8460"
         inkscape:connector-curvature="0"
         sodipodi:nodetypes="ccccc" />
      <path
         style="fill:#000000;stroke:#000000;stroke-width:1px;stroke-linecap:butt;stroke-linejoin:miter;stroke-opacity:1;fill-opacity:1"
         d="m 296,208.00002 32,-32 8,8 -32,32 z"
         id="path8462"
         inkscape:connector-curvature="0" />
      <path
         style="fill:#000000;stroke:#000000;stroke-width:1px;stroke-linecap:butt;stroke-linejoin:miter;stroke-opacity:1;fill-opacity:1"
         d="m 304,296.00002 32,32 -8,8 -32,-32 z"
         id="path8464"
         inkscape:connector-curvature="0" />
      <path
         style="fill:#000000;stroke:#000000;stroke-width:1px;stroke-linecap:butt;stroke-linejoin:miter;stroke-opacity:1;fill-opacity:1"
         d="m 216,304.00002 -32,32 -8,-8 32,-32 z"
         id="path8466"
         inkscape:connector-curvature="0" />
    </symbol>
  
</svg>
