<?xml version="1.0" encoding="UTF-8" standalone="no"?>
<svg
   xmlns:dc="http://purl.org/dc/elements/1.1/"
   xmlns:cc="http://creativecommons.org/ns#"
   xmlns:rdf="http://www.w3.org/1999/02/22-rdf-syntax-ns#"
   xmlns:svg="http://www.w3.org/2000/svg"
   xmlns="http://www.w3.org/2000/svg"
   xmlns:sodipodi="http://sodipodi.sourceforge.net/DTD/sodipodi-0.dtd"
   xmlns:inkscape="http://www.inkscape.org/namespaces/inkscape"
   height="5.3333335in"
   viewBox="0 0 512 512"
   width="5.3333335in"
   version="1.1"
   id="svg9"
   sodipodi:docname="u_installation.svg"
   inkscape:version="0.92.1 r15371">
  
    <symbol
       id="symbol"
    
       viewBox="0 0 512 512">
      <path
         style="display:inline;fill:#000000;fill-opacity:1;stroke:#000000;stroke-width:0.87052786px;stroke-linecap:butt;stroke-linejoin:miter;stroke-opacity:1"
         d="m 175.92263,17.99727 0.003,54.135962 L 224,48.000015 h 80 l 32.07441,24.133217 V 17.620968 Z"
         id="path8548"
         inkscape:connector-curvature="0"
         sodipodi:nodetypes="ccccccc" />
      <path
         inkscape:connector-curvature="0"
         style="display:inline;opacity:0.97000002;fill-opacity:0.50196078;stroke:#000000;stroke-width:1.00942147;stroke-linecap:butt;stroke-linejoin:miter;stroke-miterlimit:13;stroke-dasharray:none;stroke-opacity:1;paint-order:normal"
         d="M 260.19292,41.570103 A 101.96079,103.61124 0 0 0 185.87786,70.00871 l -0.32084,0.311621 a 101.96079,103.61124 0 0 0 -31.03483,82.647699 101.96079,103.61124 0 0 0 -79.422696,27.97025 l -0.320837,0.31162 a 101.96079,103.61124 0 0 0 -3.088543,146.41375 101.96079,103.61124 0 0 0 82.546266,31.48474 101.96079,103.61124 0 0 0 27.91126,79.13505 101.96079,103.61124 0 0 0 144.07936,3.29691 101.96079,103.61124 0 0 0 31.2229,-82.46698 101.96079,103.61124 0 0 0 81.12279,-27.99055 101.96079,103.61124 0 0 0 3.402,-146.40822 101.96079,103.61124 0 0 0 -84.32195,-31.45708 101.96079,103.61124 0 0 0 -27.70289,-79.632904 101.96079,103.61124 0 0 0 -69.75693,-32.054513 z"
         id="path8462-4" />
      <path
         style="opacity:0.97000002;fill:#000000;fill-opacity:1;stroke:#000000;stroke-width:1.06921017;stroke-linecap:butt;stroke-linejoin:miter;stroke-miterlimit:13;stroke-dasharray:none;stroke-opacity:1;paint-order:normal"
         d="M 260.39648,28.876953 C 231.22978,27.69554 202.83452,38.561732 181.67969,59 l -0.33985,0.330078 C 158.05827,82.052412 145.9993,114.16619 148.4668,146.87305 117.53678,143.99659 86.885294,154.79111 64.339844,176.5 L 64,176.83008 c -43.014354,41.92236 -44.478462,111.32898 -3.271484,155.08594 22.664213,24.0093 54.822564,36.27511 87.435544,33.3496 -2.24317,30.93064 8.49704,61.3817 29.56446,83.82227 41.20816,43.75688 109.50862,45.31977 152.61328,3.49219 23.30177,-22.64145 35.43103,-54.67767 33.07226,-87.35156 31.53716,3.4179 62.95865,-7.42375 85.92774,-29.64844 43.10514,-41.82735 44.71785,-111.2319 3.60351,-155.08008 -23.09436,-24.55285 -56.0744,-36.85636 -89.3164,-33.32031 2.45213,-31.07555 -8.21704,-61.744435 -29.34375,-84.349612 -19.35456,-20.64102 -45.8541,-32.81802 -73.88868,-33.953125 z m -0.45507,22.341797 c 24.53969,0 47.72568,8.649179 64.66406,26.712891 18.48889,19.782899 27.82584,55.622729 25.67969,82.818359 29.09134,-3.09434 67.49929,7.67302 87.71,29.16016 35.98098,38.37302 34.57018,99.11158 -3.15234,135.71679 -20.10116,19.45007 -57.14548,28.9383 -84.74516,25.94727 2.06423,28.59446 -8.55077,62.81802 -28.94336,82.63249 -37.72289,36.60511 -97.49568,36.08708 -133.5586,-2.20669 -18.43671,-19.63849 -27.83588,-53.32422 -25.87304,-80.3926 -28.54131,2.56057 -64.716422,-8.17374 -84.551087,-29.18554 -36.062129,-38.2937 -34.780704,-99.03465 2.863281,-135.72266 l 0.298828,-0.28906 c 19.730488,-18.99834 54.586438,-28.44506 81.654598,-25.92774 -2.15988,-28.62324 8.39307,-65.72765 28.76758,-85.613279 l 0.29687,-0.289063 C 209.56639,56.693844 234.91205,51.21875 259.94141,51.21875 Z"
         id="path8462"
         inkscape:connector-curvature="0"
         sodipodi:nodetypes="cccccccccccccccccccccccccccccccc" />
    </symbol>
 
</svg>
